<svg width="461" height="169" viewBox="0 0 461 169" fill="none" xmlns="http://www.w3.org/2000/svg">
<rect width="461" height="169" fill="white"/>
<g clip-path="url(#clip0)">
<path d="M89.657 132C71.4958 132 56.7747 117.279 56.7747 99.1178C56.7747 80.9566 71.4958 66.2355 89.657 66.2355C107.81 66.2355 122.527 80.9444 122.539 99.0975C122.527 117.257 107.816 131.978 89.657 132ZM89.657 73.5292C75.5355 73.5514 64.1068 85.0167 64.129 99.138C64.1513 113.259 75.6166 124.688 89.7378 124.666C103.843 124.644 115.266 113.203 115.266 99.0975C115.243 84.97 103.784 73.5292 89.657 73.5292Z" fill="#CCCCFF"/>
<path d="M64.8722 102.764C46.7109 102.752 32 88.0232 32.0102 69.862C32.0204 51.7009 46.7515 36.9879 64.9127 37C83.0334 37.0122 97.7301 51.6805 97.7747 69.8012C97.7969 87.9848 83.0758 102.742 64.8924 102.764C64.8863 102.764 64.8782 102.764 64.8722 102.764ZM64.8722 44.2937C50.7508 44.3059 39.312 55.761 39.3241 69.8822C39.3363 84.0037 50.7914 95.4424 64.9127 95.4304C79.0339 95.4183 90.4729 83.963 90.4608 69.8418C90.4608 69.8277 90.4608 69.8154 90.4608 69.8013C90.404 55.7063 78.9671 44.3039 64.8722 44.2937Z" fill="#0000FF"/>
</g>
<path d="M145.965 110H162.975C168.622 110 173.043 108.635 176.24 105.905C179.46 103.175 181.07 99.3833 181.07 94.53C181.07 90.4233 179.903 87.0983 177.57 84.555C175.237 82.0117 171.923 80.4483 167.63 79.865C173.183 77.555 175.96 73.215 175.96 66.845C175.96 62.1083 174.397 58.4917 171.27 55.995C168.167 53.4983 163.803 52.25 158.18 52.25H145.965V110ZM151.285 78.22V56.485H157.235C161.622 56.485 164.993 57.43 167.35 59.32C169.707 61.1867 170.885 63.87 170.885 67.37C170.885 70.8467 169.707 73.53 167.35 75.42C164.993 77.2867 161.622 78.22 157.235 78.22H151.285ZM151.285 105.66V82.91H161.575C166.032 82.91 169.485 83.925 171.935 85.955C174.408 87.9617 175.645 90.7733 175.645 94.39C175.645 97.9833 174.42 100.76 171.97 102.72C169.543 104.68 166.078 105.66 161.575 105.66H151.285ZM189.766 110H193.416V67H189.766V110ZM214.52 110.8C218.403 110.8 221.178 109.933 222.845 108.2C224.512 106.45 225.345 103.517 225.345 99.4V84.4H221.695V98.75C221.695 101.983 221.145 104.292 220.045 105.675C218.962 107.042 217.12 107.725 214.52 107.725C211.937 107.725 210.095 107.042 208.995 105.675C207.895 104.292 207.345 101.983 207.345 98.75V84.4H203.695V99.4C203.695 103.517 204.528 106.45 206.195 108.2C207.862 109.933 210.637 110.8 214.52 110.8ZM247.664 110.8C250.214 110.8 252.531 110.25 254.614 109.15C256.714 108.05 258.372 106.508 259.589 104.525L256.889 103.075C254.756 106.208 251.731 107.775 247.814 107.775C245.781 107.775 243.972 107.342 242.389 106.475C240.806 105.592 239.564 104.383 238.664 102.85C237.781 101.3 237.339 99.5333 237.339 97.55H260.389C260.422 97.3667 260.439 97.2083 260.439 97.075C260.456 96.9417 260.464 96.7833 260.464 96.6C260.397 94.05 259.781 91.8 258.614 89.85C257.464 87.8833 255.897 86.35 253.914 85.25C251.947 84.15 249.697 83.6 247.164 83.6C245.314 83.6 243.572 83.95 241.939 84.65C240.322 85.35 238.897 86.325 237.664 87.575C236.431 88.825 235.464 90.2833 234.764 91.95C234.064 93.6 233.714 95.3833 233.714 97.3C233.714 99.85 234.314 102.15 235.514 104.2C236.731 106.233 238.389 107.842 240.489 109.025C242.589 110.208 244.981 110.8 247.664 110.8ZM237.539 94.8C237.756 93.1833 238.306 91.7667 239.189 90.55C240.089 89.3167 241.231 88.3583 242.614 87.675C243.997 86.975 245.531 86.625 247.214 86.625C248.864 86.625 250.372 86.975 251.739 87.675C253.106 88.375 254.239 89.3417 255.139 90.575C256.039 91.8083 256.597 93.2167 256.814 94.8H237.539ZM285.82 111.04C289.07 111.04 291.984 110.455 294.563 109.285C297.163 108.093 299.21 106.371 300.705 104.117C302.222 101.864 302.98 99.1342 302.98 95.9275C302.98 93.4575 302.536 91.3667 301.648 89.655C300.759 87.9433 299.546 86.4917 298.007 85.3C296.491 84.0867 294.768 83.0467 292.84 82.18C290.912 81.2917 288.897 80.4575 286.795 79.6775C285.127 79.0708 283.469 78.3992 281.823 77.6625C280.198 76.9042 278.843 75.9183 277.76 74.705C276.698 73.47 276.168 71.8342 276.168 69.7975C276.168 68.1292 276.568 66.5475 277.37 65.0525C278.172 63.5358 279.342 62.3008 280.88 61.3475C282.44 60.3942 284.325 59.9175 286.535 59.9175C289.178 59.9175 291.475 60.535 293.425 61.77C295.397 63.005 296.838 64.37 297.748 65.865L300.283 62.4525C299.546 61.3042 298.495 60.1992 297.13 59.1375C295.787 58.0542 294.216 57.1658 292.418 56.4725C290.619 55.7575 288.648 55.4 286.503 55.4C283.534 55.4 280.913 56.0608 278.638 57.3825C276.384 58.7042 274.618 60.4592 273.34 62.6475C272.083 64.8142 271.455 67.1975 271.455 69.7975C271.455 71.8775 271.834 73.6542 272.593 75.1275C273.373 76.6008 274.38 77.8467 275.615 78.865C276.85 79.8833 278.172 80.7392 279.58 81.4325C281.01 82.1258 282.375 82.7217 283.675 83.22C286.167 84.1517 288.485 85.1267 290.63 86.145C292.775 87.1417 294.498 88.4092 295.798 89.9475C297.119 91.4858 297.78 93.5333 297.78 96.09C297.78 98.365 297.238 100.272 296.155 101.81C295.072 103.348 293.631 104.507 291.833 105.287C290.056 106.067 288.084 106.457 285.918 106.457C283.643 106.457 281.638 106.1 279.905 105.385C278.172 104.648 276.688 103.76 275.453 102.72C274.218 101.658 273.199 100.618 272.398 99.6C271.618 98.56 271.033 97.7367 270.643 97.13L267.815 100.77C268.162 101.355 268.768 102.211 269.635 103.337C270.523 104.442 271.704 105.591 273.178 106.782C274.651 107.952 276.428 108.96 278.508 109.805C280.609 110.628 283.047 111.04 285.82 111.04ZM319.871 110.8C321.504 110.8 322.938 110.417 324.171 109.65L323.246 106.75C322.513 107.3 321.646 107.575 320.646 107.575C318.529 107.575 317.471 106.117 317.471 103.2V87.15H323.846V84.4H317.471V74.825H313.821V84.4H311.221V87.15H313.821V103.4C313.821 105.75 314.346 107.575 315.396 108.875C316.463 110.158 317.954 110.8 319.871 110.8ZM344.373 110.8C347.04 110.8 349.44 110.225 351.573 109.075C353.723 107.925 355.423 106.325 356.673 104.275C357.923 102.225 358.548 99.8667 358.548 97.2C358.548 94.5167 357.923 92.1583 356.673 90.125C355.423 88.075 353.723 86.475 351.573 85.325C349.44 84.175 347.04 83.6 344.373 83.6C341.707 83.6 339.298 84.175 337.148 85.325C335.015 86.475 333.323 88.075 332.073 90.125C330.823 92.1583 330.198 94.5167 330.198 97.2C330.198 99.8667 330.823 102.225 332.073 104.275C333.323 106.325 335.015 107.925 337.148 109.075C339.298 110.225 341.707 110.8 344.373 110.8ZM344.373 107.55C342.373 107.55 340.59 107.108 339.023 106.225C337.457 105.342 336.223 104.125 335.323 102.575C334.423 101.008 333.973 99.2167 333.973 97.2C333.973 95.1833 334.423 93.4 335.323 91.85C336.223 90.2833 337.457 89.0583 339.023 88.175C340.59 87.2917 342.373 86.85 344.373 86.85C346.373 86.85 348.157 87.2917 349.723 88.175C351.29 89.0583 352.523 90.2833 353.423 91.85C354.323 93.4 354.773 95.1833 354.773 97.2C354.773 99.2167 354.323 101.008 353.423 102.575C352.523 104.125 351.29 105.342 349.723 106.225C348.157 107.108 346.373 107.55 344.373 107.55ZM367.256 110H370.906V93.1C370.906 92.0167 371.231 91 371.881 90.05C372.548 89.0833 373.406 88.3 374.456 87.7C375.523 87.1 376.639 86.8 377.806 86.8C379.089 86.8 380.273 87.0583 381.356 87.575L382.856 84.5C381.606 83.9 380.173 83.6 378.556 83.6C375.106 83.6 372.556 85.125 370.906 88.175V84.4H367.256V110ZM401.326 110.8C403.876 110.8 406.193 110.25 408.276 109.15C410.376 108.05 412.035 106.508 413.251 104.525L410.551 103.075C408.418 106.208 405.393 107.775 401.476 107.775C399.443 107.775 397.635 107.342 396.051 106.475C394.468 105.592 393.226 104.383 392.326 102.85C391.443 101.3 391.001 99.5333 391.001 97.55H414.051C414.085 97.3667 414.101 97.2083 414.101 97.075C414.118 96.9417 414.126 96.7833 414.126 96.6C414.06 94.05 413.443 91.8 412.276 89.85C411.126 87.8833 409.56 86.35 407.576 85.25C405.61 84.15 403.36 83.6 400.826 83.6C398.976 83.6 397.235 83.95 395.601 84.65C393.985 85.35 392.56 86.325 391.326 87.575C390.093 88.825 389.126 90.2833 388.426 91.95C387.726 93.6 387.376 95.3833 387.376 97.3C387.376 99.85 387.976 102.15 389.176 104.2C390.393 106.233 392.051 107.842 394.151 109.025C396.251 110.208 398.643 110.8 401.326 110.8ZM391.201 94.8C391.418 93.1833 391.968 91.7667 392.851 90.55C393.751 89.3167 394.893 88.3583 396.276 87.675C397.66 86.975 399.193 86.625 400.876 86.625C402.526 86.625 404.035 86.975 405.401 87.675C406.768 88.375 407.901 89.3417 408.801 90.575C409.701 91.8083 410.26 93.2167 410.476 94.8H391.201Z" fill="black"/>
<defs>
<clipPath id="clip0">
<rect width="95" height="95" fill="white" transform="translate(32 37)"/>
</clipPath>
</defs>
</svg>
